<?xml version="1.0" encoding="UTF-8" standalone="no"?>
<!DOCTYPE svg PUBLIC "-//W3C//DTD SVG 1.1//EN"
 "http://www.w3.org/Graphics/SVG/1.1/DTD/svg11.dtd">
<!-- Generated by graphviz version 2.40.1 (20161225.0304)
 -->
<!-- Title: dependencies Pages: 1 -->
<svg width="3553pt" height="284pt"
 viewBox="0.00 0.00 3553.00 284.00" xmlns="http://www.w3.org/2000/svg" xmlns:xlink="http://www.w3.org/1999/xlink">
<g id="graph0" class="graph" transform="scale(1 1) rotate(0) translate(4 280)">
<title>dependencies</title>
<polygon fill="#ffffff" stroke="transparent" points="-4,4 -4,-280 3549,-280 3549,4 -4,4"/>
<text text-anchor="start" x="1751.5091" y="-42.4" font-family="sans-serif" font-weight="bold" font-size="14.00" fill="#000000">Legend</text>
<polygon fill="#ffffb3" stroke="transparent" points="1538.5,-10 1538.5,-30 1558.5,-30 1558.5,-10 1538.5,-10"/>
<text text-anchor="start" x="1562.129" y="-15.4" font-family="sans-serif" font-size="14.00" fill="#000000"> &#160;Declarations</text>
<polygon fill="#8dd3c7" stroke="transparent" points="1651.5,-10 1651.5,-30 1671.5,-30 1671.5,-10 1651.5,-10"/>
<text text-anchor="start" x="1675.2251" y="-15.4" font-family="sans-serif" font-size="14.00" fill="#000000"> &#160;Module</text>
<polygon fill="#80b1d3" stroke="transparent" points="1737.5,-10 1737.5,-30 1757.5,-30 1757.5,-10 1737.5,-10"/>
<text text-anchor="start" x="1761.2812" y="-15.4" font-family="sans-serif" font-size="14.00" fill="#000000"> &#160;Bootstrap</text>
<polygon fill="#fdb462" stroke="transparent" points="1834.5,-10 1834.5,-30 1854.5,-30 1854.5,-10 1834.5,-10"/>
<text text-anchor="start" x="1858.1732" y="-15.4" font-family="sans-serif" font-size="14.00" fill="#000000"> &#160;Providers</text>
<polygon fill="#fb8072" stroke="transparent" points="1930.5,-10 1930.5,-30 1950.5,-30 1950.5,-10 1930.5,-10"/>
<text text-anchor="start" x="1954.2258" y="-15.4" font-family="sans-serif" font-size="14.00" fill="#000000"> &#160;Exports</text>
<g id="clust1" class="cluster">
<title>cluster_AppModule</title>
<polygon fill="none" stroke="#000000" stroke-dasharray="1,5" points="8,-70 8,-268 3537,-268 3537,-70 8,-70"/>
</g>
<g id="clust2" class="cluster">
<title>cluster_AppModule_declarations</title>
<polygon fill="none" stroke="#000000" points="1221,-78 1221,-130 3529,-130 3529,-78 1221,-78"/>
</g>
<g id="clust19" class="cluster">
<title>cluster_AppModule_imports</title>
<polygon fill="none" stroke="#000000" points="202,-78 202,-130 1213,-130 1213,-78 202,-78"/>
</g>
<g id="clust21" class="cluster">
<title>cluster_AppModule_bootstrap</title>
<polygon fill="none" stroke="#000000" points="1601,-208 1601,-260 1725,-260 1725,-208 1601,-208"/>
</g>
<g id="clust22" class="cluster">
<title>cluster_AppModule_providers</title>
<polygon fill="none" stroke="#000000" points="16,-78 16,-130 194,-130 194,-78 16,-78"/>
</g>
<!-- AppComponent -->
<g id="node1" class="node">
<title>AppComponent</title>
<polygon fill="#ffffb3" stroke="#000000" points="3520.9399,-122 3415.0601,-122 3415.0601,-86 3520.9399,-86 3520.9399,-122"/>
<text text-anchor="middle" x="3468" y="-99.8" font-family="Times,serif" font-size="14.00" fill="#000000">AppComponent</text>
</g>
<!-- AppModule -->
<g id="node17" class="node">
<title>AppModule</title>
<polygon fill="#8dd3c7" stroke="#000000" points="1704.6571,-187 1701.6571,-191 1680.6571,-191 1677.6571,-187 1621.3429,-187 1621.3429,-151 1704.6571,-151 1704.6571,-187"/>
<text text-anchor="middle" x="1663" y="-164.8" font-family="Times,serif" font-size="14.00" fill="#000000">AppModule</text>
</g>
<!-- AppComponent&#45;&gt;AppModule -->
<g id="edge1" class="edge">
<title>AppComponent&#45;&gt;AppModule</title>
<path fill="none" stroke="#000000" d="M3468,-122.3802C3468,-146.2785 3468,-185 3468,-185 3468,-185 1714.9604,-185 1714.9604,-185"/>
<polygon fill="#000000" stroke="#000000" points="1714.9604,-181.5001 1704.9604,-185 1714.9604,-188.5001 1714.9604,-181.5001"/>
</g>
<!-- HomeComponent -->
<g id="node2" class="node">
<title>HomeComponent</title>
<polygon fill="#ffffb3" stroke="#000000" points="3397.5451,-122 3282.4549,-122 3282.4549,-86 3397.5451,-86 3397.5451,-122"/>
<text text-anchor="middle" x="3340" y="-99.8" font-family="Times,serif" font-size="14.00" fill="#000000">HomeComponent</text>
</g>
<!-- HomeComponent&#45;&gt;AppModule -->
<g id="edge2" class="edge">
<title>HomeComponent&#45;&gt;AppModule</title>
<path fill="none" stroke="#000000" d="M3340,-122.0908C3340,-145.1328 3340,-182 3340,-182 3340,-182 1714.8726,-182 1714.8726,-182"/>
<polygon fill="#000000" stroke="#000000" points="1714.8726,-178.5001 1704.8726,-182 1714.8725,-185.5001 1714.8726,-178.5001"/>
</g>
<!-- NavComponent -->
<g id="node3" class="node">
<title>NavComponent</title>
<polygon fill="#ffffb3" stroke="#000000" points="3264.1542,-122 3159.8458,-122 3159.8458,-86 3264.1542,-86 3264.1542,-122"/>
<text text-anchor="middle" x="3212" y="-99.8" font-family="Times,serif" font-size="14.00" fill="#000000">NavComponent</text>
</g>
<!-- NavComponent&#45;&gt;AppModule -->
<g id="edge3" class="edge">
<title>NavComponent&#45;&gt;AppModule</title>
<path fill="none" stroke="#000000" d="M3212,-122.1554C3212,-144.3519 3212,-179 3212,-179 3212,-179 1714.8328,-179 1714.8328,-179"/>
<polygon fill="#000000" stroke="#000000" points="1714.8328,-175.5001 1704.8328,-179 1714.8328,-182.5001 1714.8328,-175.5001"/>
</g>
<!-- PluguinComponent -->
<g id="node4" class="node">
<title>PluguinComponent</title>
<polygon fill="#ffffb3" stroke="#000000" points="3141.3962,-122 3016.6038,-122 3016.6038,-86 3141.3962,-86 3141.3962,-122"/>
<text text-anchor="middle" x="3079" y="-99.8" font-family="Times,serif" font-size="14.00" fill="#000000">PluguinComponent</text>
</g>
<!-- PluguinComponent&#45;&gt;AppModule -->
<g id="edge4" class="edge">
<title>PluguinComponent&#45;&gt;AppModule</title>
<path fill="none" stroke="#000000" d="M3079,-122.1686C3079,-143.498 3079,-176 3079,-176 3079,-176 1714.9939,-176 1714.9939,-176"/>
<polygon fill="#000000" stroke="#000000" points="1714.9939,-172.5001 1704.9939,-176 1714.9939,-179.5001 1714.9939,-172.5001"/>
</g>
<!-- ThemeComponent -->
<g id="node5" class="node">
<title>ThemeComponent</title>
<polygon fill="#ffffb3" stroke="#000000" points="2998.205,-122 2877.795,-122 2877.795,-86 2998.205,-86 2998.205,-122"/>
<text text-anchor="middle" x="2938" y="-99.8" font-family="Times,serif" font-size="14.00" fill="#000000">ThemeComponent</text>
</g>
<!-- ThemeComponent&#45;&gt;AppModule -->
<g id="edge5" class="edge">
<title>ThemeComponent&#45;&gt;AppModule</title>
<path fill="none" stroke="#000000" d="M2938,-122.0267C2938,-142.7672 2938,-174 2938,-174 2938,-174 1714.6966,-174 1714.6966,-174"/>
<polygon fill="#000000" stroke="#000000" points="1714.6967,-170.5001 1704.6966,-174 1714.6966,-177.5001 1714.6967,-170.5001"/>
</g>
<!-- SiteWpComponent -->
<g id="node6" class="node">
<title>SiteWpComponent</title>
<polygon fill="#ffffb3" stroke="#000000" points="2859.8258,-122 2736.1742,-122 2736.1742,-86 2859.8258,-86 2859.8258,-122"/>
<text text-anchor="middle" x="2798" y="-99.8" font-family="Times,serif" font-size="14.00" fill="#000000">SiteWpComponent</text>
</g>
<!-- SiteWpComponent&#45;&gt;AppModule -->
<g id="edge6" class="edge">
<title>SiteWpComponent&#45;&gt;AppModule</title>
<path fill="none" stroke="#000000" d="M2798,-122.308C2798,-142.1455 2798,-171 2798,-171 2798,-171 1714.7413,-171 1714.7413,-171"/>
<polygon fill="#000000" stroke="#000000" points="1714.7414,-167.5001 1704.7413,-171 1714.7413,-174.5001 1714.7414,-167.5001"/>
</g>
<!-- PluguinNameComponent -->
<g id="node7" class="node">
<title>PluguinNameComponent</title>
<polygon fill="#ffffb3" stroke="#000000" points="2718.3229,-122 2559.6771,-122 2559.6771,-86 2718.3229,-86 2718.3229,-122"/>
<text text-anchor="middle" x="2639" y="-99.8" font-family="Times,serif" font-size="14.00" fill="#000000">PluguinNameComponent</text>
</g>
<!-- PluguinNameComponent&#45;&gt;AppModule -->
<g id="edge7" class="edge">
<title>PluguinNameComponent&#45;&gt;AppModule</title>
<path fill="none" stroke="#000000" d="M2639,-122.1686C2639,-141.0898 2639,-168 2639,-168 2639,-168 1714.9375,-168 1714.9375,-168"/>
<polygon fill="#000000" stroke="#000000" points="1714.9375,-164.5001 1704.9375,-168 1714.9375,-171.5001 1714.9375,-164.5001"/>
</g>
<!-- ThemeNameComponent -->
<g id="node8" class="node">
<title>ThemeNameComponent</title>
<polygon fill="#ffffb3" stroke="#000000" points="2541.6316,-122 2388.3684,-122 2388.3684,-86 2541.6316,-86 2541.6316,-122"/>
<text text-anchor="middle" x="2465" y="-99.8" font-family="Times,serif" font-size="14.00" fill="#000000">ThemeNameComponent</text>
</g>
<!-- ThemeNameComponent&#45;&gt;AppModule -->
<g id="edge8" class="edge">
<title>ThemeNameComponent&#45;&gt;AppModule</title>
<path fill="none" stroke="#000000" d="M2465,-122.302C2465,-140.2699 2465,-165 2465,-165 2465,-165 1714.7096,-165 1714.7096,-165"/>
<polygon fill="#000000" stroke="#000000" points="1714.7096,-161.5001 1704.7096,-165 1714.7096,-168.5001 1714.7096,-161.5001"/>
</g>
<!-- DeletedotsPipe -->
<g id="node9" class="node">
<title>DeletedotsPipe</title>
<polygon fill="#ffffb3" stroke="#000000" points="2370.2549,-122 2269.7451,-122 2269.7451,-86 2370.2549,-86 2370.2549,-122"/>
<text text-anchor="middle" x="2320" y="-99.8" font-family="Times,serif" font-size="14.00" fill="#000000">DeletedotsPipe</text>
</g>
<!-- DeletedotsPipe&#45;&gt;AppModule -->
<g id="edge9" class="edge">
<title>DeletedotsPipe&#45;&gt;AppModule</title>
<path fill="none" stroke="#000000" d="M2320,-122.0225C2320,-139.3734 2320,-163 2320,-163 2320,-163 1714.8469,-163 1714.8469,-163"/>
<polygon fill="#000000" stroke="#000000" points="1714.8469,-159.5001 1704.8469,-163 1714.8469,-166.5001 1714.8469,-159.5001"/>
</g>
<!-- VersionComponent -->
<g id="node10" class="node">
<title>VersionComponent</title>
<polygon fill="#ffffb3" stroke="#000000" points="2251.6499,-122 2126.3501,-122 2126.3501,-86 2251.6499,-86 2251.6499,-122"/>
<text text-anchor="middle" x="2189" y="-99.8" font-family="Times,serif" font-size="14.00" fill="#000000">VersionComponent</text>
</g>
<!-- VersionComponent&#45;&gt;AppModule -->
<g id="edge10" class="edge">
<title>VersionComponent&#45;&gt;AppModule</title>
<path fill="none" stroke="#000000" d="M2189,-122.027C2189,-138.3976 2189,-160 2189,-160 2189,-160 1714.714,-160 1714.714,-160"/>
<polygon fill="#000000" stroke="#000000" points="1714.714,-156.5001 1704.714,-160 1714.714,-163.5001 1714.714,-156.5001"/>
</g>
<!-- VersionNameComponent -->
<g id="node11" class="node">
<title>VersionNameComponent</title>
<polygon fill="#ffffb3" stroke="#000000" points="2108.5758,-122 1949.4242,-122 1949.4242,-86 2108.5758,-86 2108.5758,-122"/>
<text text-anchor="middle" x="2029" y="-99.8" font-family="Times,serif" font-size="14.00" fill="#000000">VersionNameComponent</text>
</g>
<!-- VersionNameComponent&#45;&gt;AppModule -->
<g id="edge11" class="edge">
<title>VersionNameComponent&#45;&gt;AppModule</title>
<path fill="none" stroke="#000000" d="M2029,-122.2396C2029,-137.5706 2029,-157 2029,-157 2029,-157 1714.9849,-157 1714.9849,-157"/>
<polygon fill="#000000" stroke="#000000" points="1714.9849,-153.5001 1704.9849,-157 1714.9848,-160.5001 1714.9849,-153.5001"/>
</g>
<!-- RemoveurlPipe -->
<g id="node12" class="node">
<title>RemoveurlPipe</title>
<polygon fill="#ffffb3" stroke="#000000" points="1931.5954,-122 1828.4046,-122 1828.4046,-86 1931.5954,-86 1931.5954,-122"/>
<text text-anchor="middle" x="1880" y="-99.8" font-family="Times,serif" font-size="14.00" fill="#000000">RemoveurlPipe</text>
</g>
<!-- RemoveurlPipe&#45;&gt;AppModule -->
<g id="edge12" class="edge">
<title>RemoveurlPipe&#45;&gt;AppModule</title>
<path fill="none" stroke="#000000" d="M1880,-122.0511C1880,-136.373 1880,-154 1880,-154 1880,-154 1714.8398,-154 1714.8398,-154"/>
<polygon fill="#000000" stroke="#000000" points="1714.8398,-150.5001 1704.8398,-154 1714.8397,-157.5001 1714.8398,-150.5001"/>
</g>
<!-- RemoveurlpluginPipe -->
<g id="node13" class="node">
<title>RemoveurlpluginPipe</title>
<polygon fill="#ffffb3" stroke="#000000" points="1810.3767,-122 1671.6233,-122 1671.6233,-86 1810.3767,-86 1810.3767,-122"/>
<text text-anchor="middle" x="1741" y="-99.8" font-family="Times,serif" font-size="14.00" fill="#000000">RemoveurlpluginPipe</text>
</g>
<!-- RemoveurlpluginPipe&#45;&gt;AppModule -->
<g id="edge13" class="edge">
<title>RemoveurlpluginPipe&#45;&gt;AppModule</title>
<path fill="none" stroke="#000000" d="M1688.195,-122.1061C1688.195,-122.1061 1688.195,-140.991 1688.195,-140.991"/>
<polygon fill="#000000" stroke="#000000" points="1684.695,-140.9909 1688.195,-150.991 1691.695,-140.991 1684.695,-140.9909"/>
</g>
<!-- RemoveurlthemePipe -->
<g id="node14" class="node">
<title>RemoveurlthemePipe</title>
<polygon fill="#ffffb3" stroke="#000000" points="1653.8061,-122 1516.1939,-122 1516.1939,-86 1653.8061,-86 1653.8061,-122"/>
<text text-anchor="middle" x="1585" y="-99.8" font-family="Times,serif" font-size="14.00" fill="#000000">RemoveurlthemePipe</text>
</g>
<!-- RemoveurlthemePipe&#45;&gt;AppModule -->
<g id="edge14" class="edge">
<title>RemoveurlthemePipe&#45;&gt;AppModule</title>
<path fill="none" stroke="#000000" d="M1637.4124,-122.1061C1637.4124,-122.1061 1637.4124,-140.991 1637.4124,-140.991"/>
<polygon fill="#000000" stroke="#000000" points="1633.9124,-140.9909 1637.4124,-150.991 1640.9124,-140.991 1633.9124,-140.9909"/>
</g>
<!-- MergepipePipe -->
<g id="node15" class="node">
<title>MergepipePipe</title>
<polygon fill="#ffffb3" stroke="#000000" points="1498.5285,-122 1397.4715,-122 1397.4715,-86 1498.5285,-86 1498.5285,-122"/>
<text text-anchor="middle" x="1448" y="-99.8" font-family="Times,serif" font-size="14.00" fill="#000000">MergepipePipe</text>
</g>
<!-- MergepipePipe&#45;&gt;AppModule -->
<g id="edge15" class="edge">
<title>MergepipePipe&#45;&gt;AppModule</title>
<path fill="none" stroke="#000000" d="M1448,-122.0511C1448,-136.373 1448,-154 1448,-154 1448,-154 1611.2909,-154 1611.2909,-154"/>
<polygon fill="#000000" stroke="#000000" points="1611.2909,-157.5001 1621.2909,-154 1611.2909,-150.5001 1611.2909,-157.5001"/>
</g>
<!-- InfoVultypeComponent -->
<g id="node16" class="node">
<title>InfoVultypeComponent</title>
<polygon fill="#ffffb3" stroke="#000000" points="1378.7562,-122 1229.2438,-122 1229.2438,-86 1378.7562,-86 1378.7562,-122"/>
<text text-anchor="middle" x="1304" y="-99.8" font-family="Times,serif" font-size="14.00" fill="#000000">InfoVultypeComponent</text>
</g>
<!-- InfoVultypeComponent&#45;&gt;AppModule -->
<g id="edge16" class="edge">
<title>InfoVultypeComponent&#45;&gt;AppModule</title>
<path fill="none" stroke="#000000" d="M1304,-122.2396C1304,-137.5706 1304,-157 1304,-157 1304,-157 1611.1155,-157 1611.1155,-157"/>
<polygon fill="#000000" stroke="#000000" points="1611.1156,-160.5001 1621.1155,-157 1611.1155,-153.5001 1611.1156,-160.5001"/>
</g>
<!-- AppComponent  -->
<g id="node25" class="node">
<title>AppComponent </title>
<polygon fill="#80b1d3" stroke="#000000" points="1717.439,-252 1608.561,-252 1608.561,-216 1717.439,-216 1717.439,-252"/>
<text text-anchor="middle" x="1663" y="-229.8" font-family="Times,serif" font-size="14.00" fill="#000000">AppComponent </text>
</g>
<!-- AppModule&#45;&gt;AppComponent  -->
<g id="edge26" class="edge">
<title>AppModule&#45;&gt;AppComponent </title>
<path fill="none" stroke="#000000" stroke-dasharray="1,5" d="M1663,-187.1061C1663,-187.1061 1663,-205.991 1663,-205.991"/>
<polygon fill="#000000" stroke="#000000" points="1659.5001,-205.9909 1663,-215.991 1666.5001,-205.991 1659.5001,-205.9909"/>
</g>
<!-- BrowserModule -->
<g id="node18" class="node">
<title>BrowserModule</title>
<polygon fill="#8dd3c7" stroke="#000000" points="1205.4734,-122 1202.4734,-126 1181.4734,-126 1178.4734,-122 1098.5266,-122 1098.5266,-86 1205.4734,-86 1205.4734,-122"/>
<text text-anchor="middle" x="1152" y="-99.8" font-family="Times,serif" font-size="14.00" fill="#000000">BrowserModule</text>
</g>
<!-- BrowserModule&#45;&gt;AppModule -->
<g id="edge17" class="edge">
<title>BrowserModule&#45;&gt;AppModule</title>
<path fill="none" stroke="#000000" d="M1169.8289,-122.027C1169.8289,-138.3976 1169.8289,-160 1169.8289,-160 1169.8289,-160 1610.9525,-160 1610.9525,-160"/>
<polygon fill="#000000" stroke="#000000" points="1610.9525,-163.5001 1620.9525,-160 1610.9525,-156.5001 1610.9525,-163.5001"/>
</g>
<!-- BrowserModule&#45;&gt;AppModule -->
<g id="edge20" class="edge">
<title>BrowserModule&#45;&gt;AppModule</title>
<path fill="none" stroke="#000000" d="M1134.1711,-122.0225C1134.1711,-139.3734 1134.1711,-163 1134.1711,-163 1134.1711,-163 1611.0617,-163 1611.0617,-163"/>
<polygon fill="#000000" stroke="#000000" points="1611.0617,-166.5001 1621.0617,-163 1611.0616,-159.5001 1611.0617,-166.5001"/>
</g>
<!-- FormsModule -->
<g id="node19" class="node">
<title>FormsModule</title>
<polygon fill="#8dd3c7" stroke="#000000" points="1080.8288,-122 1077.8288,-126 1056.8288,-126 1053.8288,-122 985.1712,-122 985.1712,-86 1080.8288,-86 1080.8288,-122"/>
<text text-anchor="middle" x="1033" y="-99.8" font-family="Times,serif" font-size="14.00" fill="#000000">FormsModule</text>
</g>
<!-- FormsModule&#45;&gt;AppModule -->
<g id="edge18" class="edge">
<title>FormsModule&#45;&gt;AppModule</title>
<path fill="none" stroke="#000000" d="M1017.112,-122.1686C1017.112,-141.0898 1017.112,-168 1017.112,-168 1017.112,-168 1611.1191,-168 1611.1191,-168"/>
<polygon fill="#000000" stroke="#000000" points="1611.1192,-171.5001 1621.1191,-168 1611.1191,-164.5001 1611.1192,-171.5001"/>
</g>
<!-- FormsModule&#45;&gt;AppModule -->
<g id="edge22" class="edge">
<title>FormsModule&#45;&gt;AppModule</title>
<path fill="none" stroke="#000000" d="M1048.888,-122.302C1048.888,-140.2699 1048.888,-165 1048.888,-165 1048.888,-165 1611.2724,-165 1611.2724,-165"/>
<polygon fill="#000000" stroke="#000000" points="1611.2724,-168.5001 1621.2724,-165 1611.2724,-161.5001 1611.2724,-168.5001"/>
</g>
<!-- HttpModule -->
<g id="node20" class="node">
<title>HttpModule</title>
<polygon fill="#8dd3c7" stroke="#000000" points="967.4387,-122 964.4387,-126 943.4387,-126 940.4387,-122 882.5613,-122 882.5613,-86 967.4387,-86 967.4387,-122"/>
<text text-anchor="middle" x="925" y="-99.8" font-family="Times,serif" font-size="14.00" fill="#000000">HttpModule</text>
</g>
<!-- HttpModule&#45;&gt;AppModule -->
<g id="edge19" class="edge">
<title>HttpModule&#45;&gt;AppModule</title>
<path fill="none" stroke="#000000" d="M925,-122.308C925,-142.1455 925,-171 925,-171 925,-171 1611.2074,-171 1611.2074,-171"/>
<polygon fill="#000000" stroke="#000000" points="1611.2074,-174.5001 1621.2074,-171 1611.2074,-167.5001 1611.2074,-174.5001"/>
</g>
<!-- BrowserAnimationsModule -->
<g id="node21" class="node">
<title>BrowserAnimationsModule</title>
<polygon fill="#8dd3c7" stroke="#000000" points="865.3019,-122 862.3019,-126 841.3019,-126 838.3019,-122 692.6981,-122 692.6981,-86 865.3019,-86 865.3019,-122"/>
<text text-anchor="middle" x="779" y="-99.8" font-family="Times,serif" font-size="14.00" fill="#000000">BrowserAnimationsModule</text>
</g>
<!-- BrowserAnimationsModule&#45;&gt;AppModule -->
<g id="edge21" class="edge">
<title>BrowserAnimationsModule&#45;&gt;AppModule</title>
<path fill="none" stroke="#000000" d="M779,-122.0267C779,-142.7672 779,-174 779,-174 779,-174 1611.2535,-174 1611.2535,-174"/>
<polygon fill="#000000" stroke="#000000" points="1611.2535,-177.5001 1621.2535,-174 1611.2535,-170.5001 1611.2535,-177.5001"/>
</g>
<!-- ReactiveFormsModule -->
<g id="node22" class="node">
<title>ReactiveFormsModule</title>
<polygon fill="#8dd3c7" stroke="#000000" points="675.3047,-122 672.3047,-126 651.3047,-126 648.3047,-122 530.6953,-122 530.6953,-86 675.3047,-86 675.3047,-122"/>
<text text-anchor="middle" x="603" y="-99.8" font-family="Times,serif" font-size="14.00" fill="#000000">ReactiveFormsModule</text>
</g>
<!-- ReactiveFormsModule&#45;&gt;AppModule -->
<g id="edge23" class="edge">
<title>ReactiveFormsModule&#45;&gt;AppModule</title>
<path fill="none" stroke="#000000" d="M603,-122.1686C603,-143.498 603,-176 603,-176 603,-176 1611.1203,-176 1611.1203,-176"/>
<polygon fill="#000000" stroke="#000000" points="1611.1203,-179.5001 1621.1203,-176 1611.1202,-172.5001 1611.1203,-179.5001"/>
</g>
<!-- MaterialModule -->
<g id="node23" class="node">
<title>MaterialModule</title>
<polygon fill="#8dd3c7" stroke="#000000" points="512.4706,-122 509.4706,-126 488.4706,-126 485.4706,-122 405.5294,-122 405.5294,-86 512.4706,-86 512.4706,-122"/>
<text text-anchor="middle" x="459" y="-99.8" font-family="Times,serif" font-size="14.00" fill="#000000">MaterialModule</text>
</g>
<!-- MaterialModule&#45;&gt;AppModule -->
<g id="edge24" class="edge">
<title>MaterialModule&#45;&gt;AppModule</title>
<path fill="none" stroke="#000000" d="M459,-122.1554C459,-144.3519 459,-179 459,-179 459,-179 1611.206,-179 1611.206,-179"/>
<polygon fill="#000000" stroke="#000000" points="1611.206,-182.5001 1621.206,-179 1611.2059,-175.5001 1611.206,-182.5001"/>
</g>
<!-- RouterModule.forRoot(args) -->
<g id="node24" class="node">
<title>RouterModule.forRoot(args)</title>
<polygon fill="#8dd3c7" stroke="#000000" points="387.8419,-122 384.8419,-126 363.8419,-126 360.8419,-122 210.1581,-122 210.1581,-86 387.8419,-86 387.8419,-122"/>
<text text-anchor="middle" x="299" y="-99.8" font-family="Times,serif" font-size="14.00" fill="#000000">RouterModule.forRoot(args)</text>
</g>
<!-- RouterModule.forRoot(args)&#45;&gt;AppModule -->
<g id="edge25" class="edge">
<title>RouterModule.forRoot(args)&#45;&gt;AppModule</title>
<path fill="none" stroke="#000000" d="M299,-122.0908C299,-145.1328 299,-182 299,-182 299,-182 1611.0587,-182 1611.0587,-182"/>
<polygon fill="#000000" stroke="#000000" points="1611.0588,-185.5001 1621.0587,-182 1611.0587,-178.5001 1611.0588,-185.5001"/>
</g>
<!-- WpvulndbService -->
<g id="node26" class="node">
<title>WpvulndbService</title>
<ellipse fill="#fdb462" stroke="#000000" cx="105" cy="-104" rx="80.5239" ry="18"/>
<text text-anchor="middle" x="105" y="-99.8" font-family="Times,serif" font-size="14.00" fill="#000000">WpvulndbService</text>
</g>
<!-- WpvulndbService&#45;&gt;AppModule -->
<g id="edge27" class="edge">
<title>WpvulndbService&#45;&gt;AppModule</title>
<path fill="none" stroke="#000000" d="M105,-122.3802C105,-146.2785 105,-185 105,-185 105,-185 1611.3273,-185 1611.3273,-185"/>
<polygon fill="#000000" stroke="#000000" points="1611.3273,-188.5001 1621.3273,-185 1611.3272,-181.5001 1611.3273,-188.5001"/>
</g>
</g>
</svg>
