<?xml version="1.0" encoding="UTF-8" standalone="no"?>
<!DOCTYPE svg PUBLIC "-//W3C//DTD SVG 1.1//EN"
 "http://www.w3.org/Graphics/SVG/1.1/DTD/svg11.dtd">
<!-- Generated by graphviz version 2.40.1 (20161225.0304)
 -->
<!-- Title: dependencies Pages: 1 -->
<svg width="1051pt" height="284pt"
 viewBox="0.00 0.00 1051.00 284.00" xmlns="http://www.w3.org/2000/svg" xmlns:xlink="http://www.w3.org/1999/xlink">
<g id="graph0" class="graph" transform="scale(1 1) rotate(0) translate(4 280)">
<title>dependencies</title>
<polygon fill="#ffffff" stroke="transparent" points="-4,4 -4,-280 1047,-280 1047,4 -4,4"/>
<text text-anchor="start" x="500.5091" y="-42.4" font-family="sans-serif" font-weight="bold" font-size="14.00" fill="#000000">Legend</text>
<polygon fill="#ffffb3" stroke="transparent" points="287.5,-10 287.5,-30 307.5,-30 307.5,-10 287.5,-10"/>
<text text-anchor="start" x="311.129" y="-15.4" font-family="sans-serif" font-size="14.00" fill="#000000"> &#160;Declarations</text>
<polygon fill="#8dd3c7" stroke="transparent" points="400.5,-10 400.5,-30 420.5,-30 420.5,-10 400.5,-10"/>
<text text-anchor="start" x="424.2251" y="-15.4" font-family="sans-serif" font-size="14.00" fill="#000000"> &#160;Module</text>
<polygon fill="#80b1d3" stroke="transparent" points="486.5,-10 486.5,-30 506.5,-30 506.5,-10 486.5,-10"/>
<text text-anchor="start" x="510.2812" y="-15.4" font-family="sans-serif" font-size="14.00" fill="#000000"> &#160;Bootstrap</text>
<polygon fill="#fdb462" stroke="transparent" points="583.5,-10 583.5,-30 603.5,-30 603.5,-10 583.5,-10"/>
<text text-anchor="start" x="607.1732" y="-15.4" font-family="sans-serif" font-size="14.00" fill="#000000"> &#160;Providers</text>
<polygon fill="#fb8072" stroke="transparent" points="679.5,-10 679.5,-30 699.5,-30 699.5,-10 679.5,-10"/>
<text text-anchor="start" x="703.2258" y="-15.4" font-family="sans-serif" font-size="14.00" fill="#000000"> &#160;Exports</text>
<g id="clust1" class="cluster">
<title>cluster_AppModule</title>
<polygon fill="none" stroke="#000000" stroke-dasharray="1,5" points="8,-70 8,-268 1035,-268 1035,-70 8,-70"/>
</g>
<g id="clust3" class="cluster">
<title>cluster_AppModule_imports</title>
<polygon fill="none" stroke="#000000" points="16,-78 16,-130 1027,-130 1027,-78 16,-78"/>
</g>
<g id="clust5" class="cluster">
<title>cluster_AppModule_bootstrap</title>
<polygon fill="none" stroke="#000000" points="677,-208 677,-260 801,-260 801,-208 677,-208"/>
</g>
<!-- BrowserModule -->
<g id="node1" class="node">
<title>BrowserModule</title>
<polygon fill="#8dd3c7" stroke="#000000" points="1019.4734,-122 1016.4734,-126 995.4734,-126 992.4734,-122 912.5266,-122 912.5266,-86 1019.4734,-86 1019.4734,-122"/>
<text text-anchor="middle" x="966" y="-99.8" font-family="Times,serif" font-size="14.00" fill="#000000">BrowserModule</text>
</g>
<!-- AppModule -->
<g id="node8" class="node">
<title>AppModule</title>
<polygon fill="#8dd3c7" stroke="#000000" points="780.6571,-187 777.6571,-191 756.6571,-191 753.6571,-187 697.3429,-187 697.3429,-151 780.6571,-151 780.6571,-187"/>
<text text-anchor="middle" x="739" y="-164.8" font-family="Times,serif" font-size="14.00" fill="#000000">AppModule</text>
</g>
<!-- BrowserModule&#45;&gt;AppModule -->
<g id="edge1" class="edge">
<title>BrowserModule&#45;&gt;AppModule</title>
<path fill="none" stroke="#000000" d="M983.8289,-122.0109C983.8289,-144.4852 983.8289,-180 983.8289,-180 983.8289,-180 790.8094,-180 790.8094,-180"/>
<polygon fill="#000000" stroke="#000000" points="790.8094,-176.5001 780.8094,-180 790.8094,-183.5001 790.8094,-176.5001"/>
</g>
<!-- BrowserModule&#45;&gt;AppModule -->
<g id="edge4" class="edge">
<title>BrowserModule&#45;&gt;AppModule</title>
<path fill="none" stroke="#000000" d="M948.1711,-122.1289C948.1711,-142.5724 948.1711,-173 948.1711,-173 948.1711,-173 790.8262,-173 790.8262,-173"/>
<polygon fill="#000000" stroke="#000000" points="790.8262,-169.5001 780.8262,-173 790.8261,-176.5001 790.8262,-169.5001"/>
</g>
<!-- FormsModule -->
<g id="node2" class="node">
<title>FormsModule</title>
<polygon fill="#8dd3c7" stroke="#000000" points="894.8288,-122 891.8288,-126 870.8288,-126 867.8288,-122 799.1712,-122 799.1712,-86 894.8288,-86 894.8288,-122"/>
<text text-anchor="middle" x="847" y="-99.8" font-family="Times,serif" font-size="14.00" fill="#000000">FormsModule</text>
</g>
<!-- FormsModule&#45;&gt;AppModule -->
<g id="edge2" class="edge">
<title>FormsModule&#45;&gt;AppModule</title>
<path fill="none" stroke="#000000" d="M831.112,-122.0091C831.112,-138.0494 831.112,-159 831.112,-159 831.112,-159 790.7439,-159 790.7439,-159"/>
<polygon fill="#000000" stroke="#000000" points="790.7439,-155.5001 780.7439,-159 790.7438,-162.5001 790.7439,-155.5001"/>
</g>
<!-- FormsModule&#45;&gt;AppModule -->
<g id="edge6" class="edge">
<title>FormsModule&#45;&gt;AppModule</title>
<path fill="none" stroke="#000000" d="M862.888,-122.2667C862.888,-140.5552 862.888,-166 862.888,-166 862.888,-166 790.9428,-166 790.9428,-166"/>
<polygon fill="#000000" stroke="#000000" points="790.9429,-162.5001 780.9428,-166 790.9428,-169.5001 790.9429,-162.5001"/>
</g>
<!-- HttpModule -->
<g id="node3" class="node">
<title>HttpModule</title>
<polygon fill="#8dd3c7" stroke="#000000" points="781.4387,-122 778.4387,-126 757.4387,-126 754.4387,-122 696.5613,-122 696.5613,-86 781.4387,-86 781.4387,-122"/>
<text text-anchor="middle" x="739" y="-99.8" font-family="Times,serif" font-size="14.00" fill="#000000">HttpModule</text>
</g>
<!-- HttpModule&#45;&gt;AppModule -->
<g id="edge3" class="edge">
<title>HttpModule&#45;&gt;AppModule</title>
<path fill="none" stroke="#000000" d="M739,-122.1061C739,-122.1061 739,-140.991 739,-140.991"/>
<polygon fill="#000000" stroke="#000000" points="735.5001,-140.9909 739,-150.991 742.5001,-140.991 735.5001,-140.9909"/>
</g>
<!-- BrowserAnimationsModule -->
<g id="node4" class="node">
<title>BrowserAnimationsModule</title>
<polygon fill="#8dd3c7" stroke="#000000" points="679.3019,-122 676.3019,-126 655.3019,-126 652.3019,-122 506.6981,-122 506.6981,-86 679.3019,-86 679.3019,-122"/>
<text text-anchor="middle" x="593" y="-99.8" font-family="Times,serif" font-size="14.00" fill="#000000">BrowserAnimationsModule</text>
</g>
<!-- BrowserAnimationsModule&#45;&gt;AppModule -->
<g id="edge5" class="edge">
<title>BrowserAnimationsModule&#45;&gt;AppModule</title>
<path fill="none" stroke="#000000" d="M593,-122.0091C593,-138.0494 593,-159 593,-159 593,-159 687.1623,-159 687.1623,-159"/>
<polygon fill="#000000" stroke="#000000" points="687.1623,-162.5001 697.1623,-159 687.1622,-155.5001 687.1623,-162.5001"/>
</g>
<!-- ReactiveFormsModule -->
<g id="node5" class="node">
<title>ReactiveFormsModule</title>
<polygon fill="#8dd3c7" stroke="#000000" points="489.3047,-122 486.3047,-126 465.3047,-126 462.3047,-122 344.6953,-122 344.6953,-86 489.3047,-86 489.3047,-122"/>
<text text-anchor="middle" x="417" y="-99.8" font-family="Times,serif" font-size="14.00" fill="#000000">ReactiveFormsModule</text>
</g>
<!-- ReactiveFormsModule&#45;&gt;AppModule -->
<g id="edge7" class="edge">
<title>ReactiveFormsModule&#45;&gt;AppModule</title>
<path fill="none" stroke="#000000" d="M417,-122.2667C417,-140.5552 417,-166 417,-166 417,-166 687.2342,-166 687.2342,-166"/>
<polygon fill="#000000" stroke="#000000" points="687.2343,-169.5001 697.2342,-166 687.2342,-162.5001 687.2343,-169.5001"/>
</g>
<!-- MaterialModule -->
<g id="node6" class="node">
<title>MaterialModule</title>
<polygon fill="#8dd3c7" stroke="#000000" points="326.4706,-122 323.4706,-126 302.4706,-126 299.4706,-122 219.5294,-122 219.5294,-86 326.4706,-86 326.4706,-122"/>
<text text-anchor="middle" x="273" y="-99.8" font-family="Times,serif" font-size="14.00" fill="#000000">MaterialModule</text>
</g>
<!-- MaterialModule&#45;&gt;AppModule -->
<g id="edge8" class="edge">
<title>MaterialModule&#45;&gt;AppModule</title>
<path fill="none" stroke="#000000" d="M273,-122.1289C273,-142.5724 273,-173 273,-173 273,-173 687.2355,-173 687.2355,-173"/>
<polygon fill="#000000" stroke="#000000" points="687.2355,-176.5001 697.2355,-173 687.2355,-169.5001 687.2355,-176.5001"/>
</g>
<!-- RouterModule.forRoot(args) -->
<g id="node7" class="node">
<title>RouterModule.forRoot(args)</title>
<polygon fill="#8dd3c7" stroke="#000000" points="201.8419,-122 198.8419,-126 177.8419,-126 174.8419,-122 24.1581,-122 24.1581,-86 201.8419,-86 201.8419,-122"/>
<text text-anchor="middle" x="113" y="-99.8" font-family="Times,serif" font-size="14.00" fill="#000000">RouterModule.forRoot(args)</text>
</g>
<!-- RouterModule.forRoot(args)&#45;&gt;AppModule -->
<g id="edge9" class="edge">
<title>RouterModule.forRoot(args)&#45;&gt;AppModule</title>
<path fill="none" stroke="#000000" d="M113,-122.0109C113,-144.4852 113,-180 113,-180 113,-180 686.9543,-180 686.9543,-180"/>
<polygon fill="#000000" stroke="#000000" points="686.9544,-183.5001 696.9543,-180 686.9543,-176.5001 686.9544,-183.5001"/>
</g>
<!-- AppComponent  -->
<g id="node9" class="node">
<title>AppComponent </title>
<polygon fill="#80b1d3" stroke="#000000" points="793.439,-252 684.561,-252 684.561,-216 793.439,-216 793.439,-252"/>
<text text-anchor="middle" x="739" y="-229.8" font-family="Times,serif" font-size="14.00" fill="#000000">AppComponent </text>
</g>
<!-- AppModule&#45;&gt;AppComponent  -->
<g id="edge10" class="edge">
<title>AppModule&#45;&gt;AppComponent </title>
<path fill="none" stroke="#000000" stroke-dasharray="1,5" d="M739,-187.1061C739,-187.1061 739,-205.991 739,-205.991"/>
<polygon fill="#000000" stroke="#000000" points="735.5001,-205.9909 739,-215.991 742.5001,-205.991 735.5001,-205.9909"/>
</g>
</g>
</svg>
